<?xml version="1.0" encoding="UTF-8" standalone="no"?>
<!DOCTYPE svg PUBLIC "-//W3C//DTD SVG 1.1//EN"
 "http://www.w3.org/Graphics/SVG/1.1/DTD/svg11.dtd">
<!-- Generated by graphviz version 2.40.1 (20161225.0304)
 -->
<!-- Title: dependencies Pages: 1 -->
<svg width="518pt" height="284pt"
 viewBox="0.00 0.00 518.00 284.00" xmlns="http://www.w3.org/2000/svg" xmlns:xlink="http://www.w3.org/1999/xlink">
<g id="graph0" class="graph" transform="scale(1 1) rotate(0) translate(4 280)">
<title>dependencies</title>
<polygon fill="#ffffff" stroke="transparent" points="-4,4 -4,-280 514,-280 514,4 -4,4"/>
<text text-anchor="start" x="234.0091" y="-42.4" font-family="sans-serif" font-weight="bold" font-size="14.00" fill="#000000">Legend</text>
<polygon fill="#ffffb3" stroke="transparent" points="21,-10 21,-30 41,-30 41,-10 21,-10"/>
<text text-anchor="start" x="44.629" y="-15.4" font-family="sans-serif" font-size="14.00" fill="#000000"> &#160;Declarations</text>
<polygon fill="#8dd3c7" stroke="transparent" points="134,-10 134,-30 154,-30 154,-10 134,-10"/>
<text text-anchor="start" x="157.7251" y="-15.4" font-family="sans-serif" font-size="14.00" fill="#000000"> &#160;Module</text>
<polygon fill="#80b1d3" stroke="transparent" points="220,-10 220,-30 240,-30 240,-10 220,-10"/>
<text text-anchor="start" x="243.7812" y="-15.4" font-family="sans-serif" font-size="14.00" fill="#000000"> &#160;Bootstrap</text>
<polygon fill="#fdb462" stroke="transparent" points="317,-10 317,-30 337,-30 337,-10 317,-10"/>
<text text-anchor="start" x="340.6732" y="-15.4" font-family="sans-serif" font-size="14.00" fill="#000000"> &#160;Providers</text>
<polygon fill="#fb8072" stroke="transparent" points="413,-10 413,-30 433,-30 433,-10 413,-10"/>
<text text-anchor="start" x="436.7258" y="-15.4" font-family="sans-serif" font-size="14.00" fill="#000000"> &#160;Exports</text>
<g id="clust1" class="cluster">
<title>cluster_NgxAutoDisableFormsModule</title>
<polygon fill="none" stroke="#000000" stroke-dasharray="1,5" points="8,-70 8,-268 502,-268 502,-70 8,-70"/>
</g>
<g id="clust2" class="cluster">
<title>cluster_NgxAutoDisableFormsModule_declarations</title>
<polygon fill="none" stroke="#000000" points="200,-78 200,-130 494,-130 494,-78 200,-78"/>
</g>
<g id="clust5" class="cluster">
<title>cluster_NgxAutoDisableFormsModule_exports</title>
<polygon fill="none" stroke="#000000" points="106,-208 106,-260 404,-260 404,-208 106,-208"/>
</g>
<g id="clust7" class="cluster">
<title>cluster_NgxAutoDisableFormsModule_providers</title>
<polygon fill="none" stroke="#000000" points="16,-78 16,-130 192,-130 192,-78 16,-78"/>
</g>
<!-- RolesAndPermissionsRelatedContentDirective -->
<g id="node1" class="node">
<title>RolesAndPermissionsRelatedContentDirective</title>
<polygon fill="#ffffb3" stroke="#000000" points="486.3332,-122 207.6668,-122 207.6668,-86 486.3332,-86 486.3332,-122"/>
<text text-anchor="middle" x="347" y="-99.8" font-family="Times,serif" font-size="14.00" fill="#000000">RolesAndPermissionsRelatedContentDirective</text>
</g>
<!-- NgxAutoDisableFormsModule -->
<g id="node2" class="node">
<title>NgxAutoDisableFormsModule</title>
<polygon fill="#8dd3c7" stroke="#000000" points="350.1937,-187 347.1937,-191 326.1937,-191 323.1937,-187 159.8063,-187 159.8063,-151 350.1937,-151 350.1937,-187"/>
<text text-anchor="middle" x="255" y="-164.8" font-family="Times,serif" font-size="14.00" fill="#000000">NgxAutoDisableFormsModule</text>
</g>
<!-- RolesAndPermissionsRelatedContentDirective&#45;&gt;NgxAutoDisableFormsModule -->
<g id="edge1" class="edge">
<title>RolesAndPermissionsRelatedContentDirective&#45;&gt;NgxAutoDisableFormsModule</title>
<path fill="none" stroke="#000000" d="M278.8401,-122.1061C278.8401,-122.1061 278.8401,-140.991 278.8401,-140.991"/>
<polygon fill="#000000" stroke="#000000" points="275.3402,-140.9909 278.8401,-150.991 282.3402,-140.991 275.3402,-140.9909"/>
</g>
<!-- RolesAndPermissionsRelatedContentDirective  -->
<g id="node3" class="node">
<title>RolesAndPermissionsRelatedContentDirective </title>
<polygon fill="#fb8072" stroke="#000000" points="396.3334,-252 113.6666,-252 113.6666,-216 396.3334,-216 396.3334,-252"/>
<text text-anchor="middle" x="255" y="-229.8" font-family="Times,serif" font-size="14.00" fill="#000000">RolesAndPermissionsRelatedContentDirective </text>
</g>
<!-- NgxAutoDisableFormsModule&#45;&gt;RolesAndPermissionsRelatedContentDirective  -->
<g id="edge2" class="edge">
<title>NgxAutoDisableFormsModule&#45;&gt;RolesAndPermissionsRelatedContentDirective </title>
<path fill="none" stroke="#000000" stroke-dasharray="5,2" d="M255,-187.1061C255,-187.1061 255,-205.991 255,-205.991"/>
<polygon fill="#000000" stroke="#000000" points="251.5001,-205.9909 255,-215.991 258.5001,-205.991 251.5001,-205.9909"/>
</g>
<!-- UserRolesService -->
<g id="node4" class="node">
<title>UserRolesService</title>
<ellipse fill="#fdb462" stroke="#000000" cx="104" cy="-104" rx="80.4306" ry="18"/>
<text text-anchor="middle" x="104" y="-99.8" font-family="Times,serif" font-size="14.00" fill="#000000">UserRolesService</text>
</g>
<!-- UserRolesService&#45;&gt;NgxAutoDisableFormsModule -->
<g id="edge3" class="edge">
<title>UserRolesService&#45;&gt;NgxAutoDisableFormsModule</title>
<path fill="none" stroke="#000000" d="M172.0591,-113.591C172.0591,-113.591 172.0591,-140.748 172.0591,-140.748"/>
<polygon fill="#000000" stroke="#000000" points="168.5592,-140.7479 172.0591,-150.748 175.5592,-140.748 168.5592,-140.7479"/>
</g>
</g>
</svg>
