<?xml version="1.0" encoding="UTF-8" standalone="no"?>
<!DOCTYPE svg PUBLIC "-//W3C//DTD SVG 1.1//EN"
 "http://www.w3.org/Graphics/SVG/1.1/DTD/svg11.dtd">
<!-- Generated by graphviz version 2.40.1 (20161225.0304)
 -->
<!-- Title: dependencies Pages: 1 -->
<svg width="608pt" height="284pt"
 viewBox="0.00 0.00 608.00 284.00" xmlns="http://www.w3.org/2000/svg" xmlns:xlink="http://www.w3.org/1999/xlink">
<g id="graph0" class="graph" transform="scale(1 1) rotate(0) translate(4 280)">
<title>dependencies</title>
<polygon fill="#ffffff" stroke="transparent" points="-4,4 -4,-280 604,-280 604,4 -4,4"/>
<text text-anchor="start" x="279.0091" y="-42.4" font-family="sans-serif" font-weight="bold" font-size="14.00" fill="#000000">Legend</text>
<polygon fill="#ffffb3" stroke="transparent" points="66,-10 66,-30 86,-30 86,-10 66,-10"/>
<text text-anchor="start" x="89.629" y="-15.4" font-family="sans-serif" font-size="14.00" fill="#000000"> &#160;Declarations</text>
<polygon fill="#8dd3c7" stroke="transparent" points="179,-10 179,-30 199,-30 199,-10 179,-10"/>
<text text-anchor="start" x="202.7251" y="-15.4" font-family="sans-serif" font-size="14.00" fill="#000000"> &#160;Module</text>
<polygon fill="#80b1d3" stroke="transparent" points="265,-10 265,-30 285,-30 285,-10 265,-10"/>
<text text-anchor="start" x="288.7812" y="-15.4" font-family="sans-serif" font-size="14.00" fill="#000000"> &#160;Bootstrap</text>
<polygon fill="#fdb462" stroke="transparent" points="362,-10 362,-30 382,-30 382,-10 362,-10"/>
<text text-anchor="start" x="385.6732" y="-15.4" font-family="sans-serif" font-size="14.00" fill="#000000"> &#160;Providers</text>
<polygon fill="#fb8072" stroke="transparent" points="458,-10 458,-30 478,-30 478,-10 458,-10"/>
<text text-anchor="start" x="481.7258" y="-15.4" font-family="sans-serif" font-size="14.00" fill="#000000"> &#160;Exports</text>
<g id="clust1" class="cluster">
<title>cluster_NgxAutoDisableFormsModule</title>
<polygon fill="none" stroke="#000000" stroke-dasharray="1,5" points="8,-70 8,-268 592,-268 592,-70 8,-70"/>
</g>
<g id="clust2" class="cluster">
<title>cluster_NgxAutoDisableFormsModule_declarations</title>
<polygon fill="none" stroke="#000000" points="290,-78 290,-130 584,-130 584,-78 290,-78"/>
</g>
<g id="clust5" class="cluster">
<title>cluster_NgxAutoDisableFormsModule_exports</title>
<polygon fill="none" stroke="#000000" points="151,-208 151,-260 449,-260 449,-208 151,-208"/>
</g>
<g id="clust7" class="cluster">
<title>cluster_NgxAutoDisableFormsModule_providers</title>
<polygon fill="none" stroke="#000000" points="16,-78 16,-130 282,-130 282,-78 16,-78"/>
</g>
<!-- RolesAndPermissionsRelatedContentDirective -->
<g id="node1" class="node">
<title>RolesAndPermissionsRelatedContentDirective</title>
<polygon fill="#ffffb3" stroke="#000000" points="576.3332,-122 297.6668,-122 297.6668,-86 576.3332,-86 576.3332,-122"/>
<text text-anchor="middle" x="437" y="-99.8" font-family="Times,serif" font-size="14.00" fill="#000000">RolesAndPermissionsRelatedContentDirective</text>
</g>
<!-- NgxAutoDisableFormsModule -->
<g id="node2" class="node">
<title>NgxAutoDisableFormsModule</title>
<polygon fill="#8dd3c7" stroke="#000000" points="395.1937,-187 392.1937,-191 371.1937,-191 368.1937,-187 204.8063,-187 204.8063,-151 395.1937,-151 395.1937,-187"/>
<text text-anchor="middle" x="300" y="-164.8" font-family="Times,serif" font-size="14.00" fill="#000000">NgxAutoDisableFormsModule</text>
</g>
<!-- RolesAndPermissionsRelatedContentDirective&#45;&gt;NgxAutoDisableFormsModule -->
<g id="edge1" class="edge">
<title>RolesAndPermissionsRelatedContentDirective&#45;&gt;NgxAutoDisableFormsModule</title>
<path fill="none" stroke="#000000" d="M346.3401,-122.1061C346.3401,-122.1061 346.3401,-140.991 346.3401,-140.991"/>
<polygon fill="#000000" stroke="#000000" points="342.8402,-140.9909 346.3401,-150.991 349.8402,-140.991 342.8402,-140.9909"/>
</g>
<!-- RolesAndPermissionsRelatedContentDirective  -->
<g id="node3" class="node">
<title>RolesAndPermissionsRelatedContentDirective </title>
<polygon fill="#fb8072" stroke="#000000" points="441.3334,-252 158.6666,-252 158.6666,-216 441.3334,-216 441.3334,-252"/>
<text text-anchor="middle" x="300" y="-229.8" font-family="Times,serif" font-size="14.00" fill="#000000">RolesAndPermissionsRelatedContentDirective </text>
</g>
<!-- NgxAutoDisableFormsModule&#45;&gt;RolesAndPermissionsRelatedContentDirective  -->
<g id="edge2" class="edge">
<title>NgxAutoDisableFormsModule&#45;&gt;RolesAndPermissionsRelatedContentDirective </title>
<path fill="none" stroke="#000000" stroke-dasharray="5,2" d="M300,-187.1061C300,-187.1061 300,-205.991 300,-205.991"/>
<polygon fill="#000000" stroke="#000000" points="296.5001,-205.9909 300,-215.991 303.5001,-205.991 296.5001,-205.9909"/>
</g>
<!-- RolesAndPermissionsService -->
<g id="node4" class="node">
<title>RolesAndPermissionsService</title>
<ellipse fill="#fdb462" stroke="#000000" cx="149" cy="-104" rx="125.076" ry="18"/>
<text text-anchor="middle" x="149" y="-99.8" font-family="Times,serif" font-size="14.00" fill="#000000">RolesAndPermissionsService</text>
</g>
<!-- RolesAndPermissionsService&#45;&gt;NgxAutoDisableFormsModule -->
<g id="edge3" class="edge">
<title>RolesAndPermissionsService&#45;&gt;NgxAutoDisableFormsModule</title>
<path fill="none" stroke="#000000" d="M239.5955,-116.5327C239.5955,-116.5327 239.5955,-140.8507 239.5955,-140.8507"/>
<polygon fill="#000000" stroke="#000000" points="236.0956,-140.8506 239.5955,-150.8507 243.0956,-140.8507 236.0956,-140.8506"/>
</g>
</g>
</svg>
